<?xml version="1.0" encoding="UTF-8"?>
<svg version="1.1" xmlns="http://www.w3.org/2000/svg" width="1254" height="1254">
<path d="M0 0 C413.82 0 827.64 0 1254 0 C1254 413.82 1254 827.64 1254 1254 C840.18 1254 426.36 1254 0 1254 C0 840.18 0 426.36 0 0 Z " fill="#FDFDFD" transform="translate(0,0)"/>
<path d="M0 0 C2.77854625 1.07309433 4.17637955 2.86332028 6.17758179 5.0569458 C31.22666323 30.72859213 67.52808996 45.62065689 103.16049194 46.33380127 C119.21901017 46.5171339 134.43861175 45.30888649 149.92758179 40.7444458 C150.71600464 40.51450928 151.50442749 40.28457275 152.31674194 40.04766846 C177.32359724 32.5023585 199.69686773 18.31339203 217.92758179 -0.2555542 C222.39425829 1.29286539 226.11572376 3.69781052 230.00180054 6.3303833 C230.67893097 6.78369019 231.3560614 7.23699707 232.05371094 7.70404053 C234.24374557 9.17155627 236.42940633 10.64544742 238.61508179 12.1194458 C240.11957761 13.12917864 241.62437993 14.13845497 243.12948608 15.14727783 C246.07766025 17.12409173 249.02432996 19.10311281 251.96957397 21.08428955 C256.71699019 24.27684314 261.47689856 27.45047746 266.24008179 30.6194458 C267.48627371 31.45002769 268.73237152 32.28075081 269.97836304 33.1116333 C270.588573 33.51841309 271.19878296 33.92519287 271.82748413 34.34429932 C273.43728107 35.41755966 275.04695937 36.49099795 276.65658569 37.56451416 C281.69769852 40.92620786 286.74032389 44.2855749 291.78695679 47.63897705 C309.76918626 59.59499021 309.76918626 59.59499021 317.92758179 65.2444458 C327.5232532 71.88760293 337.25758994 78.32354246 346.97738647 84.78302002 C351.46372939 87.76574751 355.94563478 90.75511883 360.42758179 93.7444458 C361.89630801 94.72364814 363.36505535 95.7028188 364.83383179 96.6819458 C365.85476929 97.3625708 366.87570679 98.0431958 367.92758179 98.7444458 C367.4451936 104.0402292 364.62363404 107.83806438 361.80258179 112.1819458 C361.27342163 113.0074292 360.74426147 113.8329126 360.19906616 114.68341064 C346.15749493 136.4413378 331.12307306 157.53646714 315.70980835 178.33721924 C312.77518076 182.3009765 309.85196436 186.27312772 306.92758179 190.2444458 C305.76355252 191.82389738 304.59948998 193.40332443 303.43539429 194.98272705 C301.07414982 198.18708478 298.71499633 201.39296797 296.35726929 204.59991455 C290.43105346 212.6574887 284.48019244 220.69432589 278.46615601 228.68658447 C274.586925 233.84841269 270.75215436 239.04202504 266.92758179 244.2444458 C262.14475748 250.75033999 257.32747062 257.22816705 252.47103882 263.67926025 C248.54428494 268.90300128 244.66994692 274.16413913 240.80258179 279.4319458 C236.8818958 284.77157706 232.92985624 290.07610153 228.86508179 295.3069458 C224.45178958 301.00174863 220.22754892 306.81893017 216.0249939 312.67047119 C212.03319252 318.22572326 207.9944446 323.74394475 203.92758179 329.2444458 C197.19179223 338.36173497 190.5489426 347.5438574 183.92758179 356.7444458 C176.72694971 366.74994978 169.48507392 376.72133058 162.16049194 386.63653564 C158.19856734 392.00519075 154.26876767 397.39580848 150.36508179 402.8069458 C149.5719458 403.9051062 149.5719458 403.9051062 148.76278687 405.02545166 C145.99670647 408.8596601 143.2439913 412.70283366 140.50570679 416.5569458 C124.27290723 439.35115024 124.27290723 439.35115024 118.16195679 441.3694458 C109.4068016 442.83884248 100.71983054 443.22971219 93.24008179 437.9397583 C88.8438326 433.76629201 85.62498625 428.81917115 82.30209351 423.79083252 C79.85403894 420.14614453 77.25832612 416.60827273 74.67758179 413.0569458 C74.13472534 412.30542236 73.5918689 411.55389893 73.03256226 410.77960205 C68.38124502 404.34412486 63.66762625 397.95540548 58.9480896 391.56988525 C55.16584229 386.44549916 51.43945408 381.28606544 47.75497437 376.09112549 C44.20410064 371.09899357 40.56951876 366.17039902 36.92758179 361.2444458 C32.88363469 355.77474813 28.86304025 350.29277021 24.92758179 344.7444458 C15.27949017 331.15541514 5.27385164 317.82215553 -4.74673462 304.50665283 C-6.69155263 301.92144171 -8.63193811 299.33291388 -10.57241821 296.7444458 C-11.29300415 295.78409424 -12.01359009 294.82374268 -12.75601196 293.83428955 C-14.41651284 291.61935499 -16.07532477 289.40321543 -17.73257446 287.18585205 C-24.15322739 278.60152704 -30.63118988 270.06255477 -37.13565063 261.54156494 C-41.26515407 256.12805254 -45.37061772 250.69774167 -49.44741821 245.2444458 C-53.74192272 239.50157064 -58.08516975 233.79998392 -62.46694946 228.12335205 C-67.08721716 222.13740062 -71.67223326 216.12437857 -76.26138306 210.11456299 C-78.16149353 207.62787218 -80.06421652 205.1431929 -81.96694946 202.6585083 C-89.08414311 193.35360308 -96.13429223 184.00646449 -103.06216431 174.55963135 C-106.71880619 169.57391869 -110.41256693 164.61873334 -114.13491821 159.6819458 C-120.56727452 151.11992229 -126.89409463 142.49188305 -133.07241821 133.7444458 C-133.46221863 133.1943988 -133.85201904 132.64435181 -134.25363159 132.07763672 C-136.89868711 128.34269609 -139.52347871 124.59452664 -142.12805176 120.83123779 C-143.0038925 119.57042258 -143.88482456 118.31312812 -144.77093506 117.05950928 C-146.01891327 115.29098825 -147.24683131 113.51006731 -148.47085571 111.72491455 C-149.18934692 110.69261719 -149.90783813 109.66031982 -150.64810181 108.59674072 C-152.07241821 105.7444458 -152.07241821 105.7444458 -151.96353149 103.01690674 C-150.55816965 99.43304152 -147.67210323 97.8524495 -144.57241821 95.8069458 C-143.84611206 95.310979 -143.11980591 94.81501221 -142.37149048 94.30401611 C-139.61679523 92.43298518 -136.84497905 90.5889018 -134.07241821 88.7444458 C-132.85448519 87.92900908 -131.63689305 87.11306306 -130.41958618 86.29669189 C-121.3027625 80.18355061 -112.16365501 74.1043074 -103.01742554 68.03527832 C-89.56387943 59.10663594 -76.14102521 50.13730966 -62.80142212 41.03912354 C-55.60781928 36.13710703 -48.39705333 31.2610885 -41.17788696 26.39678955 C-40.216483 25.74893997 -39.25507904 25.10109039 -38.26454163 24.43360901 C-33.41331104 21.16507945 -28.56109536 17.89802081 -23.70791626 14.63238525 C-21.89971307 13.4145547 -20.09152555 12.19670088 -18.28335571 10.9788208 C-17.45824997 10.42423691 -16.63314423 9.86965302 -15.78303528 9.29826355 C-15.00245255 8.7722908 -14.22186981 8.24631805 -13.41763306 7.70440674 C-12.6792218 7.20936646 -11.94081055 6.71432617 -11.18002319 6.20428467 C-9.79046031 5.2417998 -8.42445156 4.24425752 -7.08639526 3.21136475 C-2.52032398 -0.31078639 -2.52032398 -0.31078639 0 0 Z " fill="#D91C20" transform="translate(518.0724182128906,605.2555541992188)"/>
<path d="M0 0 C0 58.08 0 116.16 0 176 C-5.94 176.99 -11.88 177.98 -18 179 C-22.10557048 179.98284869 -26.09279169 180.98439735 -30.125 182.1875 C-31.13852539 182.48720703 -32.15205078 182.78691406 -33.19628906 183.09570312 C-42.03389531 185.81626106 -49.97115614 189.45605455 -58 194 C-59.05058594 194.56460938 -60.10117187 195.12921875 -61.18359375 195.7109375 C-95.17884398 214.54315674 -119.09784832 248.04586037 -130 285 C-136.81544352 311.97985808 -136.52653752 337.96872014 -130 365 C-129.80245117 365.83418457 -129.60490234 366.66836914 -129.40136719 367.52783203 C-126.39378841 379.86721611 -121.23572247 390.88581132 -114.75390625 401.7734375 C-113 405 -113 405 -113 408 C-115.30150313 409.80063679 -117.56926098 411.38399151 -120.01953125 412.9609375 C-120.76869308 413.45522247 -121.51785492 413.94950745 -122.28971863 414.45877075 C-124.79133848 416.10680343 -127.30199406 417.74054252 -129.8125 419.375 C-132.46437117 421.11812717 -135.1136733 422.86511417 -137.76290894 424.61224365 C-139.62095865 425.83725769 -141.47980183 427.06106897 -143.33938599 428.28375244 C-153.95289947 435.26693758 -164.47641164 442.38234844 -175 449.5 C-178.4995454 451.86525669 -181.99958315 454.2297832 -185.5 456.59375 C-186.32021133 457.14769943 -187.14042267 457.70164886 -187.98548889 458.27238464 C-195.30376503 463.21158728 -202.64595848 468.11425383 -210 473 C-210.99225586 473.6595166 -211.98451172 474.3190332 -213.00683594 474.99853516 C-213.94043945 475.61905762 -214.87404297 476.23958008 -215.8359375 476.87890625 C-229.53433694 485.98522169 -243.15954395 495.19323167 -256.74536133 504.46630859 C-261.94014645 508 -261.94014645 508 -265 508 C-267.04558987 504.05353179 -269.09022366 500.10657008 -271.1340332 496.15917969 C-271.82714013 494.82083277 -272.52049274 493.48261306 -273.21411133 492.14453125 C-285.15379425 469.10999496 -285.15379425 469.10999496 -287.0625 463.375 C-288.20139725 460.09607806 -289.41669235 457.05471874 -291.0625 454 C-293.08103884 450.14427542 -294.15535293 446.21890579 -295.19140625 442.00390625 C-296.06778111 438.74819482 -297.12108934 435.58270436 -298.19946289 432.3894043 C-302.54354209 419.42340763 -306.01608402 406.38542457 -308.61816406 392.96337891 C-309.09881846 390.49188104 -309.61384417 388.02784389 -310.125 385.5625 C-310.42015151 384.04233913 -310.71179894 382.52149388 -311 381 C-311.17402344 380.12085938 -311.34804688 379.24171875 -311.52734375 378.3359375 C-314.67991019 361.26145356 -314.27394283 343.61323864 -314.3125 326.3125 C-314.31545074 325.1434613 -314.31840149 323.97442261 -314.32144165 322.7699585 C-314.33192223 304.48463967 -313.40645065 286.98760345 -310 269 C-309.73450795 267.47937033 -309.4700534 265.95855883 -309.20703125 264.4375 C-307.68027615 256.20483163 -305.61771715 248.08329772 -303.51171875 239.98193359 C-303.00730708 238.02830099 -302.51816636 236.07133819 -302.03125 234.11328125 C-300.21853525 227.00129959 -298.08298269 220.19851205 -295.3515625 213.38671875 C-294.10342085 210.25914994 -292.92571521 207.11555658 -291.765625 203.95483398 C-289.13825952 196.81754874 -286.31438648 189.85158885 -283 183 C-282.58693604 182.1352002 -282.58693604 182.1352002 -282.16552734 181.25292969 C-271.10139302 158.1682799 -257.24704196 136.77695786 -241 117 C-240.56993652 116.46697266 -240.13987305 115.93394531 -239.69677734 115.38476562 C-233.07402598 107.199509 -225.85584998 99.65490449 -218.4375 92.1875 C-217.57527832 91.31601318 -216.71305664 90.44452637 -215.82470703 89.54663086 C-210.6337179 84.38070709 -205.26026662 79.60492727 -199.53979492 75.03173828 C-196.94802414 72.95842131 -194.40986302 70.82981844 -191.875 68.6875 C-138.41904201 25.13639419 -68.86324905 0 0 0 Z " fill="#038C44" transform="translate(615,177)"/>
<path d="M0 0 C2.72282364 -0.00709259 5.44562859 -0.01227155 8.16845703 -0.01635742 C8.93482986 -0.01855034 9.7012027 -0.02074326 10.49079895 -0.02300262 C15.98163525 -0.02917832 21.40898822 0.13355172 26.875 0.6875 C28.16446533 0.81777588 28.16446533 0.81777588 29.47998047 0.95068359 C50.93736341 3.31285959 71.4964938 8.35329477 92 15 C92.92425781 15.29664551 93.84851563 15.59329102 94.80078125 15.89892578 C132.30732113 28.06076862 166.63661673 47.99204811 197 73 C197.91136719 73.72574219 198.82273437 74.45148438 199.76171875 75.19921875 C207.15973075 81.23319269 213.98073911 87.76988492 220.75 94.5 C222.06254761 95.79877075 222.06254761 95.79877075 223.40161133 97.1237793 C228.58397006 102.33063164 233.37793444 107.71713239 237.96435547 113.45629883 C240.05773544 116.07214507 242.20938263 118.6313154 244.375 121.1875 C257.33256624 137.06951696 267.93072377 154.89206313 277.4375 173 C278.18181274 174.41454468 278.18181274 174.41454468 278.94116211 175.85766602 C281.63779541 181.07643645 284.00501685 186.315501 286.11743164 191.79614258 C287.0343966 194.18083474 287.0343966 194.18083474 288.5625 197.07421875 C290.43102482 200.87727606 291.70160695 204.7854528 293 208.8125 C293.2475 209.56853516 293.495 210.32457031 293.75 211.10351562 C294.24980343 212.63025892 294.74777109 214.15760442 295.24389648 215.68554688 C296.0166487 218.05096213 296.80569739 220.41048411 297.59765625 222.76953125 C301.08885899 233.23518942 303.33034214 243.92493672 305.52685547 254.72070312 C305.93526837 256.6881659 306.37309672 258.64948023 306.81640625 260.609375 C314.51699419 295.60471705 314.56192221 333.68324995 309 369 C308.68203469 371.19769166 308.3656717 373.39561566 308.05078125 375.59375 C307.72429131 377.79210488 307.39495293 379.99003898 307.0625 382.1875 C306.9171582 383.15518311 306.77181641 384.12286621 306.62207031 385.11987305 C304.41444694 398.79150256 300.19199577 411.92921633 295.90087891 425.06079102 C295.12744879 427.42999876 294.36215551 429.80172553 293.59765625 432.17382812 C291.13294237 439.78060133 288.57767697 447.34720645 285.8046875 454.84765625 C285.56734894 455.49729843 285.33001038 456.14694061 285.08547974 456.81626892 C283.71085923 460.46964645 282.06764835 463.69654044 280 467 C278.98590894 469.32724382 277.98701677 471.66114508 277 474 C275.81095546 476.52036792 274.5656985 479.01100853 273.3125 481.5 C272.97089844 482.18126953 272.62929688 482.86253906 272.27734375 483.56445312 C268.64192256 490.77558969 264.8382065 497.89523478 261 505 C257.71448798 504.36637092 255.44635074 503.17725117 252.66552734 501.33544922 C251.39302628 500.49855057 251.39302628 500.49855057 250.09481812 499.64474487 C249.18438751 499.03752594 248.27395691 498.43030701 247.3359375 497.8046875 C246.38868805 497.17901886 245.4414386 496.55335022 244.46548462 495.90872192 C241.43177464 493.90278366 238.40346532 491.88884525 235.375 489.875 C233.35839834 488.54117453 231.34147473 487.20783569 229.32421875 485.875 C227.3695029 484.58116532 225.41506705 483.28690752 223.4609375 481.9921875 C222.56265228 481.39711395 221.66436707 480.80204041 220.73886108 480.18893433 C215.50658226 476.7087079 210.32990531 473.15984312 205.19433594 469.53834534 C202.03943578 467.32659377 198.8378219 465.18884307 195.625 463.0625 C194.45049232 462.28259502 193.27601427 461.50264542 192.1015625 460.72265625 C191.45864258 460.295896 190.81572266 459.86913574 190.15332031 459.42944336 C189.44272461 458.95772705 188.73212891 458.48601074 188 458 C187.20432617 457.47220947 186.40865234 456.94441895 185.58886719 456.40063477 C179.08093984 452.07375189 172.59942789 447.70883087 166.125 443.33203125 C165.22832611 442.7260762 164.33165222 442.12012115 163.4078064 441.49580383 C159.67827357 438.97531028 155.94877627 436.45477036 152.22119141 433.93139648 C139.2383711 425.14431364 126.17718431 416.49309017 113 408 C113.71400741 404.10657112 114.79841752 401.04591786 116.58203125 397.5 C117.10216797 396.44683594 117.62230469 395.39367187 118.15820312 394.30859375 C119.24622508 392.13254984 120.33728686 389.95802272 121.43164062 387.78515625 C126.25463444 377.99679241 129.61252299 368.02321947 131.6875 357.3125 C131.91824219 356.15363281 132.14898438 354.99476563 132.38671875 353.80078125 C138.7495251 314.36759283 131.54214009 272.1846324 108.3828125 239.125 C106.05214583 235.97073799 103.56177127 232.96998848 101 230 C100.23816406 229.11183594 99.47632813 228.22367188 98.69140625 227.30859375 C96.50529829 224.82696339 94.2662539 222.40840244 92 220 C91.36320313 219.28714844 90.72640625 218.57429687 90.0703125 217.83984375 C68.67986956 194.90962184 34.54055249 178.66972736 3.125 177.17578125 C1 177 1 177 0 176 C-0.09707611 173.73442613 -0.12186621 171.46575698 -0.12025452 169.19810486 C-0.12110894 168.47854522 -0.12196337 167.75898558 -0.12284368 167.0176211 C-0.1245006 164.5884642 -0.11897368 162.15937523 -0.11352539 159.73022461 C-0.11324354 157.99610903 -0.11340121 156.26199332 -0.1139679 154.52787781 C-0.11425595 149.80493679 -0.10835799 145.08202094 -0.10139394 140.3590858 C-0.09516166 135.4289721 -0.0945567 130.49885788 -0.09336853 125.56874084 C-0.09025484 116.22603638 -0.08204095 106.88334356 -0.07201904 97.54064423 C-0.06085907 86.90720945 -0.05534775 76.27377413 -0.05032361 65.64033496 C-0.03985836 43.7602168 -0.02225819 21.88010913 0 0 Z " fill="#F6B504" transform="translate(640,177)"/>
<path d="M0 0 C0.33 0.99 0.66 1.98 1 3 C-7.33333333 11.33333333 -15.66666667 19.66666667 -24 28 C-24.66 27.67 -25.32 27.34 -26 27 C-17.51305985 17.80999972 -8.91908571 8.77206782 0 0 Z " fill="#13954B" transform="translate(404,262)"/>
<path d="M0 0 C0.66 0.66 1.32 1.32 2 2 C1.07347299 3.17539996 0.13336613 4.34010577 -0.8125 5.5 C-1.33457031 6.1496875 -1.85664063 6.799375 -2.39453125 7.46875 C-4 9 -4 9 -7 9 C-6.875 6.75 -6.875 6.75 -6 4 C-2.9375 1.6875 -2.9375 1.6875 0 0 Z " fill="#DE2528" transform="translate(373,702)"/>
<path d="M0 0 C0.66 0.66 1.32 1.32 2 2 C0.68 4.31 -0.64 6.62 -2 9 C-3.32 8.67 -4.64 8.34 -6 8 C-4.26440562 4.942048 -2.61527381 2.36620011 0 0 Z " fill="#F9BE22" transform="translate(903,673)"/>
<path d="M0 0 C0.33 0 0.66 0 1 0 C2.34495828 7.09705662 3.24091535 13.7725395 3 21 C2.67 21 2.34 21 2 21 C1.80083984 19.75283203 1.80083984 19.75283203 1.59765625 18.48046875 C1.42105469 17.39378906 1.24445312 16.30710937 1.0625 15.1875 C0.88847656 14.10855469 0.71445312 13.02960938 0.53515625 11.91796875 C0.06128079 8.95066644 0.06128079 8.95066644 -1 6 C-0.72428861 3.99124558 -0.39764263 1.98821313 0 0 Z " fill="#FBCD50" transform="translate(946,437)"/>
<path d="M0 0 C2.33936818 2.12669835 3.80653848 4.06224856 5 7 C5 7.99 5 8.98 5 10 C4.34 10 3.68 10 3 10 C1.68 7.03 0.36 4.06 -1 1 C-0.67 0.67 -0.34 0.34 0 0 Z " fill="#0F9747" transform="translate(341,664)"/>
<path d="M0 0 C1.875 0.5625 1.875 0.5625 4 2 C5.25 5.625 5.25 5.625 6 9 C5.01 9.495 5.01 9.495 4 10 C3.3310968 8.52184338 2.66493641 7.04244528 2 5.5625 C1.62875 4.73878906 1.2575 3.91507813 0.875 3.06640625 C0 1 0 1 0 0 Z " fill="#14964C" transform="translate(328,639)"/>
<path d="M0 0 C3.99455527 0.61454696 6.74466336 2.70646737 10 5 C9.01 5.33 8.02 5.66 7 6 C5.17578125 5.0390625 5.17578125 5.0390625 3.3125 3.625 C2.68988281 3.16351562 2.06726563 2.70203125 1.42578125 2.2265625 C0.95527344 1.82179688 0.48476563 1.41703125 0 1 C0 0.67 0 0.34 0 0 Z " fill="#E1272D" transform="translate(828,667)"/>
<path d="M0 0 C0.33 0 0.66 0 1 0 C1.31563182 5.26053037 0.66590937 8.44573816 -2 13 C-3.18771723 9.57056481 -2.80226223 7.62215325 -1.5625 4.25 C-1.27503906 3.45078125 -0.98757813 2.6515625 -0.69140625 1.828125 C-0.46324219 1.22484375 -0.23507812 0.6215625 0 0 Z " fill="#BFE5CF" transform="translate(487,453)"/>
<path d="M0 0 C0.33 0 0.66 0 1 0 C1.25 3.25 1.25 3.25 1 7 C-0.32 8.32 -1.64 9.64 -3 11 C-2.01 7.37 -1.02 3.74 0 0 Z " fill="#FCE7B0" transform="translate(936,599)"/>
<path d="M0 0 C0.99 0.495 0.99 0.495 2 1 C1.67 2.65 1.34 4.3 1 6 C1.99 6.33 2.98 6.66 4 7 C3.67 7.99 3.34 8.98 3 10 C2.34 10 1.68 10 1 10 C-0.60725635 6.78548731 -0.05748185 3.56387464 0 0 Z " fill="#2EA461" transform="translate(305,558)"/>
<path d="M0 0 C0.33 0 0.66 0 1 0 C2.12029814 5.48946087 1.79217969 8.83430559 0 14 C-0.33 14 -0.66 14 -1 14 C-1.08333357 9.1666528 -0.95261487 4.76307437 0 0 Z " fill="#53B47A" transform="translate(303,461)"/>
</svg>
